%
M48
M72
T01C0.0315
T02C0.0374
T03C0.0413
T04C0.0570
%
T01
X3432Y2403
X3432Y3388
X3432Y4175
X3432Y5159
T02
X3639Y9031
X2852Y9031
X4427Y9031
X5214Y9031
T03
X2296Y1537
X2446Y1537
X2596Y1537
X2746Y1537
X2896Y1537
X2596Y2699
X2596Y4864
X2596Y6025
X2746Y6025
X2896Y6025
X2446Y6025
X2296Y6025
T04
X2655Y7954
X2655Y10108
X5411Y10108
X5411Y7954
M30
