G75*
%MOIN*%
%OFA0B0*%
%FSLAX25Y25*%
%IPPOS*%
%LPD*%
%AMOC8*
5,1,8,0,0,1.08239X$1,22.5*
%
%ADD10C,0.05740*%
%ADD11C,0.08550*%
%ADD12C,0.06201*%
%ADD13C,0.05150*%
%ADD14C,0.01600*%
%ADD15C,0.04000*%
D10*
X0028520Y0090312D03*
X0036394Y0090312D03*
X0044268Y0090312D03*
X0052142Y0090312D03*
D11*
X0054111Y0079545D03*
X0054111Y0101080D03*
X0026551Y0101080D03*
X0026551Y0079545D03*
D12*
X0029056Y0060253D02*
X0022856Y0060253D01*
X0022856Y0015371D02*
X0029056Y0015371D01*
D13*
X0034322Y0024033D03*
X0034322Y0033875D03*
X0034322Y0041749D03*
X0034322Y0051592D03*
D14*
X0034322Y0051592D01*
X0034322Y0047217D01*
X0033978Y0047217D01*
X0033298Y0047325D01*
X0032823Y0047479D01*
X0032823Y0047273D01*
X0032010Y0045310D01*
X0033492Y0045924D01*
X0035153Y0045924D01*
X0036687Y0045289D01*
X0037861Y0044114D01*
X0038497Y0042580D01*
X0038497Y0040919D01*
X0037861Y0039385D01*
X0036687Y0038210D01*
X0035727Y0037812D01*
X0036687Y0037415D01*
X0037861Y0036240D01*
X0038497Y0034706D01*
X0038497Y0033045D01*
X0037861Y0031511D01*
X0036687Y0030336D01*
X0035153Y0029701D01*
X0033492Y0029701D01*
X0032010Y0030314D01*
X0032823Y0028352D01*
X0032823Y0027931D01*
X0033492Y0028208D01*
X0035153Y0028208D01*
X0036687Y0027572D01*
X0037861Y0026398D01*
X0038497Y0024863D01*
X0038497Y0023202D01*
X0037861Y0021668D01*
X0036687Y0020494D01*
X0035153Y0019858D01*
X0034181Y0019858D01*
X0034777Y0019261D01*
X0035823Y0016737D01*
X0035823Y0015612D01*
X0072831Y0015612D01*
X0073771Y0015674D01*
X0075586Y0016160D01*
X0077214Y0017100D01*
X0078543Y0018429D01*
X0079483Y0020057D01*
X0079969Y0021873D01*
X0080031Y0022812D01*
X0080031Y0097812D01*
X0079969Y0098752D01*
X0079483Y0100568D01*
X0078543Y0102196D01*
X0077214Y0103525D01*
X0075586Y0104464D01*
X0073771Y0104951D01*
X0072831Y0105012D01*
X0058763Y0105012D01*
X0059306Y0104264D01*
X0059740Y0103412D01*
X0060036Y0102503D01*
X0060162Y0101705D01*
X0054736Y0101705D01*
X0054736Y0100455D01*
X0060162Y0100455D01*
X0060036Y0099658D01*
X0059740Y0098748D01*
X0059306Y0097896D01*
X0058744Y0097123D01*
X0058068Y0096446D01*
X0057295Y0095884D01*
X0056443Y0095450D01*
X0055533Y0095155D01*
X0054736Y0095028D01*
X0054736Y0100455D01*
X0053485Y0100455D01*
X0048059Y0100455D01*
X0048185Y0099658D01*
X0048481Y0098748D01*
X0048915Y0097896D01*
X0049477Y0097123D01*
X0050153Y0096446D01*
X0050927Y0095884D01*
X0051779Y0095450D01*
X0052688Y0095155D01*
X0053485Y0095028D01*
X0053485Y0100455D01*
X0053485Y0101705D01*
X0048059Y0101705D01*
X0048185Y0102503D01*
X0048481Y0103412D01*
X0048915Y0104264D01*
X0049458Y0105012D01*
X0031204Y0105012D01*
X0031747Y0104264D01*
X0032181Y0103412D01*
X0032477Y0102503D01*
X0032603Y0101705D01*
X0027177Y0101705D01*
X0027177Y0100455D01*
X0032603Y0100455D01*
X0032477Y0099658D01*
X0032181Y0098748D01*
X0031747Y0097896D01*
X0031185Y0097123D01*
X0030509Y0096446D01*
X0029735Y0095884D01*
X0028883Y0095450D01*
X0027974Y0095155D01*
X0027176Y0095028D01*
X0027176Y0100455D01*
X0025926Y0100455D01*
X0025926Y0095028D01*
X0025129Y0095155D01*
X0024219Y0095450D01*
X0023367Y0095884D01*
X0022594Y0096446D01*
X0021918Y0097123D01*
X0021356Y0097896D01*
X0020922Y0098748D01*
X0020795Y0099136D01*
X0020693Y0098752D01*
X0020631Y0097812D01*
X0020631Y0080982D01*
X0020922Y0081877D01*
X0021356Y0082729D01*
X0021918Y0083502D01*
X0022594Y0084178D01*
X0023367Y0084741D01*
X0024219Y0085175D01*
X0025129Y0085470D01*
X0025926Y0085596D01*
X0025926Y0080170D01*
X0027176Y0080170D01*
X0027176Y0085596D01*
X0027974Y0085470D01*
X0028883Y0085175D01*
X0029735Y0084741D01*
X0030509Y0084178D01*
X0031185Y0083502D01*
X0031747Y0082729D01*
X0032181Y0081877D01*
X0032477Y0080967D01*
X0032603Y0080170D01*
X0027177Y0080170D01*
X0027177Y0078920D01*
X0032603Y0078920D01*
X0032477Y0078122D01*
X0032181Y0077213D01*
X0031747Y0076361D01*
X0031185Y0075587D01*
X0030509Y0074911D01*
X0029735Y0074349D01*
X0028883Y0073915D01*
X0027974Y0073619D01*
X0027176Y0073493D01*
X0027176Y0078920D01*
X0025926Y0078920D01*
X0025926Y0073493D01*
X0025129Y0073619D01*
X0024219Y0073915D01*
X0023367Y0074349D01*
X0022594Y0074911D01*
X0021918Y0075587D01*
X0021356Y0076361D01*
X0020922Y0077213D01*
X0020631Y0078107D01*
X0020631Y0066723D01*
X0021590Y0067120D01*
X0025822Y0067120D01*
X0025956Y0067065D01*
X0026090Y0067120D01*
X0030322Y0067120D01*
X0032846Y0066075D01*
X0034777Y0064143D01*
X0035823Y0061619D01*
X0035823Y0058887D01*
X0034777Y0056364D01*
X0034381Y0055967D01*
X0034666Y0055967D01*
X0035347Y0055859D01*
X0036001Y0055646D01*
X0036615Y0055334D01*
X0037172Y0054929D01*
X0037659Y0054442D01*
X0038064Y0053885D01*
X0038376Y0053271D01*
X0038589Y0052616D01*
X0038697Y0051936D01*
X0038697Y0051592D01*
X0034322Y0051592D01*
X0034322Y0047217D01*
X0034666Y0047217D01*
X0035347Y0047325D01*
X0036001Y0047538D01*
X0036615Y0047850D01*
X0037172Y0048255D01*
X0037659Y0048742D01*
X0038064Y0049299D01*
X0038376Y0049913D01*
X0038589Y0050568D01*
X0038697Y0051248D01*
X0038697Y0051592D01*
X0034322Y0051592D01*
X0034322Y0051592D01*
X0034322Y0050275D02*
X0034322Y0050275D01*
X0034322Y0048677D02*
X0034322Y0048677D01*
X0032742Y0047078D02*
X0080031Y0047078D01*
X0080031Y0045480D02*
X0036226Y0045480D01*
X0037958Y0043881D02*
X0080031Y0043881D01*
X0080031Y0042283D02*
X0038497Y0042283D01*
X0038400Y0040684D02*
X0080031Y0040684D01*
X0080031Y0039086D02*
X0037562Y0039086D01*
X0036512Y0037487D02*
X0080031Y0037487D01*
X0080031Y0035889D02*
X0038007Y0035889D01*
X0038497Y0034290D02*
X0080031Y0034290D01*
X0080031Y0032692D02*
X0038351Y0032692D01*
X0037444Y0031093D02*
X0080031Y0031093D01*
X0080031Y0029495D02*
X0032349Y0029495D01*
X0035905Y0027896D02*
X0080031Y0027896D01*
X0080031Y0026298D02*
X0037903Y0026298D01*
X0038497Y0024699D02*
X0080031Y0024699D01*
X0080031Y0023101D02*
X0038455Y0023101D01*
X0037695Y0021502D02*
X0079870Y0021502D01*
X0079394Y0019904D02*
X0035262Y0019904D01*
X0035174Y0018305D02*
X0078419Y0018305D01*
X0076532Y0016706D02*
X0035823Y0016706D01*
X0032418Y0045480D02*
X0032080Y0045480D01*
X0037594Y0048677D02*
X0080031Y0048677D01*
X0080031Y0050275D02*
X0038494Y0050275D01*
X0038697Y0051874D02*
X0080031Y0051874D01*
X0080031Y0053472D02*
X0038274Y0053472D01*
X0036977Y0055071D02*
X0080031Y0055071D01*
X0080031Y0056669D02*
X0034904Y0056669D01*
X0035566Y0058268D02*
X0080031Y0058268D01*
X0080031Y0059866D02*
X0035823Y0059866D01*
X0035823Y0061465D02*
X0080031Y0061465D01*
X0080031Y0063063D02*
X0035225Y0063063D01*
X0034259Y0064662D02*
X0080031Y0064662D01*
X0080031Y0066260D02*
X0032398Y0066260D01*
X0025956Y0060253D02*
X0025956Y0059958D01*
X0020631Y0067859D02*
X0080031Y0067859D01*
X0080031Y0069457D02*
X0020631Y0069457D01*
X0020631Y0071056D02*
X0080031Y0071056D01*
X0080031Y0072654D02*
X0020631Y0072654D01*
X0020631Y0074253D02*
X0023556Y0074253D01*
X0025926Y0074253D02*
X0027176Y0074253D01*
X0027176Y0075851D02*
X0025926Y0075851D01*
X0025926Y0077450D02*
X0027176Y0077450D01*
X0027177Y0079048D02*
X0053485Y0079048D01*
X0053485Y0078920D02*
X0048059Y0078920D01*
X0048185Y0078122D01*
X0048481Y0077213D01*
X0048915Y0076361D01*
X0049477Y0075587D01*
X0050153Y0074911D01*
X0050927Y0074349D01*
X0051779Y0073915D01*
X0052688Y0073619D01*
X0053485Y0073493D01*
X0053485Y0078920D01*
X0053485Y0080170D01*
X0048059Y0080170D01*
X0048185Y0080967D01*
X0048481Y0081877D01*
X0048915Y0082729D01*
X0049477Y0083502D01*
X0050153Y0084178D01*
X0050927Y0084741D01*
X0051779Y0085175D01*
X0052688Y0085470D01*
X0053485Y0085596D01*
X0053485Y0080170D01*
X0054736Y0080170D01*
X0060162Y0080170D01*
X0060036Y0080967D01*
X0059740Y0081877D01*
X0059306Y0082729D01*
X0058744Y0083502D01*
X0058068Y0084178D01*
X0057295Y0084741D01*
X0056443Y0085175D01*
X0055533Y0085470D01*
X0054736Y0085596D01*
X0054736Y0080170D01*
X0054736Y0078920D01*
X0060162Y0078920D01*
X0060036Y0078122D01*
X0059740Y0077213D01*
X0059306Y0076361D01*
X0058744Y0075587D01*
X0058068Y0074911D01*
X0057295Y0074349D01*
X0056443Y0073915D01*
X0055533Y0073619D01*
X0054736Y0073493D01*
X0054736Y0078920D01*
X0053485Y0078920D01*
X0054736Y0079048D02*
X0080031Y0079048D01*
X0080031Y0077450D02*
X0059817Y0077450D01*
X0058936Y0075851D02*
X0080031Y0075851D01*
X0080031Y0074253D02*
X0057106Y0074253D01*
X0054736Y0074253D02*
X0053485Y0074253D01*
X0053485Y0075851D02*
X0054736Y0075851D01*
X0054736Y0077450D02*
X0053485Y0077450D01*
X0053485Y0080647D02*
X0054736Y0080647D01*
X0054736Y0082245D02*
X0053485Y0082245D01*
X0053485Y0083844D02*
X0054736Y0083844D01*
X0054736Y0085442D02*
X0053485Y0085442D01*
X0053031Y0085842D02*
X0054674Y0086523D01*
X0055932Y0087780D01*
X0056612Y0089423D01*
X0056612Y0091202D01*
X0055932Y0092845D01*
X0054674Y0094102D01*
X0053031Y0094783D01*
X0051253Y0094783D01*
X0049610Y0094102D01*
X0048352Y0092845D01*
X0048205Y0092489D01*
X0048058Y0092845D01*
X0046800Y0094102D01*
X0045157Y0094783D01*
X0043379Y0094783D01*
X0041736Y0094102D01*
X0040478Y0092845D01*
X0040331Y0092489D01*
X0040184Y0092845D01*
X0038926Y0094102D01*
X0037283Y0094783D01*
X0035505Y0094783D01*
X0033862Y0094102D01*
X0032604Y0092845D01*
X0032545Y0092700D01*
X0032514Y0092760D01*
X0032082Y0093355D01*
X0031562Y0093875D01*
X0030968Y0094307D01*
X0030313Y0094640D01*
X0029614Y0094868D01*
X0028888Y0094983D01*
X0028655Y0094983D01*
X0028655Y0090448D01*
X0028385Y0090448D01*
X0028385Y0094983D01*
X0028152Y0094983D01*
X0027426Y0094868D01*
X0026727Y0094640D01*
X0026072Y0094307D01*
X0025478Y0093875D01*
X0024958Y0093355D01*
X0024526Y0092760D01*
X0024192Y0092105D01*
X0023965Y0091406D01*
X0023850Y0090680D01*
X0023850Y0090447D01*
X0028385Y0090447D01*
X0028385Y0090177D01*
X0028655Y0090177D01*
X0028655Y0085642D01*
X0028888Y0085642D01*
X0029614Y0085757D01*
X0030313Y0085985D01*
X0030968Y0086318D01*
X0031562Y0086750D01*
X0032082Y0087270D01*
X0032514Y0087865D01*
X0032545Y0087925D01*
X0032604Y0087780D01*
X0033862Y0086523D01*
X0035505Y0085842D01*
X0037283Y0085842D01*
X0038926Y0086523D01*
X0040184Y0087780D01*
X0040331Y0088136D01*
X0040478Y0087780D01*
X0041736Y0086523D01*
X0043379Y0085842D01*
X0045157Y0085842D01*
X0046800Y0086523D01*
X0048058Y0087780D01*
X0048205Y0088136D01*
X0048352Y0087780D01*
X0049610Y0086523D01*
X0051253Y0085842D01*
X0053031Y0085842D01*
X0052603Y0085442D02*
X0028059Y0085442D01*
X0028152Y0085642D02*
X0027426Y0085757D01*
X0026727Y0085985D01*
X0026072Y0086318D01*
X0025478Y0086750D01*
X0024958Y0087270D01*
X0024526Y0087865D01*
X0024192Y0088520D01*
X0023965Y0089219D01*
X0023850Y0089945D01*
X0023850Y0090177D01*
X0028385Y0090177D01*
X0028385Y0085642D01*
X0028152Y0085642D01*
X0027176Y0085442D02*
X0025926Y0085442D01*
X0025044Y0085442D02*
X0020631Y0085442D01*
X0020631Y0087041D02*
X0025187Y0087041D01*
X0024153Y0088639D02*
X0020631Y0088639D01*
X0020631Y0090238D02*
X0028385Y0090238D01*
X0028385Y0088639D02*
X0028655Y0088639D01*
X0028655Y0087041D02*
X0028385Y0087041D01*
X0027176Y0083844D02*
X0025926Y0083844D01*
X0025926Y0082245D02*
X0027176Y0082245D01*
X0027176Y0080647D02*
X0025926Y0080647D01*
X0022259Y0083844D02*
X0020631Y0083844D01*
X0020631Y0082245D02*
X0021109Y0082245D01*
X0020844Y0077450D02*
X0020631Y0077450D01*
X0020631Y0075851D02*
X0021726Y0075851D01*
X0029547Y0074253D02*
X0051115Y0074253D01*
X0049285Y0075851D02*
X0031377Y0075851D01*
X0032258Y0077450D02*
X0048404Y0077450D01*
X0048134Y0080647D02*
X0032528Y0080647D01*
X0031994Y0082245D02*
X0048668Y0082245D01*
X0049818Y0083844D02*
X0030844Y0083844D01*
X0031853Y0087041D02*
X0033344Y0087041D01*
X0039444Y0087041D02*
X0041218Y0087041D01*
X0047318Y0087041D02*
X0049092Y0087041D01*
X0055192Y0087041D02*
X0080031Y0087041D01*
X0080031Y0085442D02*
X0055618Y0085442D01*
X0058403Y0083844D02*
X0080031Y0083844D01*
X0080031Y0082245D02*
X0059553Y0082245D01*
X0060087Y0080647D02*
X0080031Y0080647D01*
X0080031Y0088639D02*
X0056287Y0088639D01*
X0056612Y0090238D02*
X0080031Y0090238D01*
X0080031Y0091837D02*
X0056349Y0091837D01*
X0055341Y0093435D02*
X0080031Y0093435D01*
X0080031Y0095034D02*
X0054768Y0095034D01*
X0054736Y0095034D02*
X0053485Y0095034D01*
X0053453Y0095034D02*
X0027209Y0095034D01*
X0027176Y0095034D02*
X0025926Y0095034D01*
X0025894Y0095034D02*
X0020631Y0095034D01*
X0020631Y0093435D02*
X0025038Y0093435D01*
X0024105Y0091837D02*
X0020631Y0091837D01*
X0020631Y0096632D02*
X0022408Y0096632D01*
X0021185Y0098231D02*
X0020658Y0098231D01*
X0025926Y0098231D02*
X0027176Y0098231D01*
X0027176Y0096632D02*
X0025926Y0096632D01*
X0025926Y0099829D02*
X0027176Y0099829D01*
X0027177Y0101428D02*
X0053485Y0101428D01*
X0054736Y0101428D02*
X0078986Y0101428D01*
X0079681Y0099829D02*
X0060063Y0099829D01*
X0059477Y0098231D02*
X0080004Y0098231D01*
X0080031Y0096632D02*
X0058254Y0096632D01*
X0054736Y0096632D02*
X0053485Y0096632D01*
X0053485Y0098231D02*
X0054736Y0098231D01*
X0054736Y0099829D02*
X0053485Y0099829D01*
X0049967Y0096632D02*
X0030695Y0096632D01*
X0031918Y0098231D02*
X0048744Y0098231D01*
X0048158Y0099829D02*
X0032504Y0099829D01*
X0032307Y0103026D02*
X0048355Y0103026D01*
X0049177Y0104625D02*
X0031485Y0104625D01*
X0032002Y0093435D02*
X0033195Y0093435D01*
X0028655Y0093435D02*
X0028385Y0093435D01*
X0028385Y0091837D02*
X0028655Y0091837D01*
X0039593Y0093435D02*
X0041069Y0093435D01*
X0047467Y0093435D02*
X0048943Y0093435D01*
X0059866Y0103026D02*
X0077713Y0103026D01*
X0074988Y0104625D02*
X0059044Y0104625D01*
D15*
X0020331Y0055312D02*
X0020331Y0020312D01*
X0025272Y0015371D01*
X0025956Y0015371D01*
X0034322Y0051592D02*
X0025956Y0059958D01*
X0025956Y0060253D02*
X0021015Y0055312D01*
X0020331Y0055312D01*
M02*
